<svg width="223" height="323" xmlns="http://www.w3.org/2000/svg" xmlns:xlink="http://www.w3.org/1999/xlink" viewBox="0 0 223 323"> <circle  cx="151.12124633789062" cy="107.9198226928711" r="5" fill="none" stroke="deeppink" stroke-width="2"/><text x="121.12124633789062" y="107.9198226928711" class="small">rf:0.67</text><line x1="0" y1="10" x2="223" y2="10" style="stroke:rgb(0,0,0);stroke-width:2"/><line x1="0" y1="304" x2="223" y2="304" style="stroke:rgb(0,0,0);stroke-width:2"/><circle  cx="114.59976196289062" cy="107.41413879394531" r="5" fill="none" stroke="deeppink" stroke-width="2"/><text x="84.59976196289062" y="107.41413879394531" class="small">rf:0.67</text><line x1="0" y1="10" x2="223" y2="10" style="stroke:rgb(0,0,0);stroke-width:2"/><line x1="0" y1="304" x2="223" y2="304" style="stroke:rgb(0,0,0);stroke-width:2"/><circle  cx="39.85385513305664" cy="58.0" r="5" fill="none" stroke="deeppink" stroke-width="2"/><text x="9.85385513305664" y="58.0" class="small">rf:0.84</text><line x1="0" y1="10" x2="223" y2="10" style="stroke:rgb(0,0,0);stroke-width:2"/><line x1="0" y1="304" x2="223" y2="304" style="stroke:rgb(0,0,0);stroke-width:2"/><circle  cx="77.73142857142857" cy="195.58382642998026" r="5" fill="none" stroke="deeppink" stroke-width="2"/><text x="47.731428571428566" y="195.58382642998026" class="small">rf:0.37</text><line x1="0" y1="10" x2="223" y2="10" style="stroke:rgb(0,0,0);stroke-width:2"/><line x1="0" y1="304" x2="223" y2="304" style="stroke:rgb(0,0,0);stroke-width:2"/><circle  cx="111.5" cy="249.09861932938855" r="5" fill="none" stroke="deeppink" stroke-width="2"/><text x="81.5" y="249.09861932938855" class="small">rf:0.19</text><line x1="0" y1="10" x2="223" y2="10" style="stroke:rgb(0,0,0);stroke-width:2"/><line x1="0" y1="304" x2="223" y2="304" style="stroke:rgb(0,0,0);stroke-width:2"/><circle  cx="189.86857142857144" cy="251.64694280078896" r="5" fill="none" stroke="deeppink" stroke-width="2"/><text x="159.86857142857144" y="251.64694280078896" class="small">rf:0.18</text><line x1="0" y1="10" x2="223" y2="10" style="stroke:rgb(0,0,0);stroke-width:2"/><line x1="0" y1="304" x2="223" y2="304" style="stroke:rgb(0,0,0);stroke-width:2"/></svg>