<svg width="850" height="424" xmlns="http://www.w3.org/2000/svg" xmlns:xlink="http://www.w3.org/1999/xlink" viewBox="0 0 850 424"><circle  cx="829.79345703125" cy="406.2184143066406" r="5" fill="none" stroke="deeppink" stroke-width="2"/><circle  cx="399.470458984375" cy="276.7525329589844" r="5" fill="none" stroke="deeppink" stroke-width="2"/><circle  cx="6.4285712242126465" cy="168.14285278320312" r="5" fill="none" stroke="deeppink" stroke-width="2"/><circle  cx="347.65484619140625" cy="328.84515380859375" r="5" fill="none" stroke="deeppink" stroke-width="2"/><circle  cx="6.295837879180908" cy="239.70472717285156" r="5" fill="none" stroke="deeppink" stroke-width="2"/><circle  cx="4.0" cy="215.09742736816406" r="5" fill="none" stroke="deeppink" stroke-width="2"/><circle  cx="4.819118022918701" cy="201.92135620117188" r="5" fill="none" stroke="deeppink" stroke-width="2"/><circle  cx="5.0" cy="188.5" r="5" fill="none" stroke="deeppink" stroke-width="2"/><circle  cx="332.1483459472656" cy="68.9227523803711" r="5" fill="none" stroke="deeppink" stroke-width="2"/><circle  cx="301.64764404296875" cy="61.2983512878418" r="5" fill="none" stroke="deeppink" stroke-width="2"/><circle  cx="571.8018798828125" cy="396.616455078125" r="5" fill="none" stroke="deeppink" stroke-width="2"/><circle  cx="344.5985412597656" cy="358.5026550292969" r="5" fill="none" stroke="deeppink" stroke-width="2"/><circle  cx="323.5406494140625" cy="340.2833557128906" r="5" fill="none" stroke="deeppink" stroke-width="2"/><circle  cx="356.41839599609375" cy="348.2149658203125" r="5" fill="none" stroke="deeppink" stroke-width="2"/><circle  cx="369.667724609375" cy="335.2587890625" r="5" fill="none" stroke="deeppink" stroke-width="2"/><circle  cx="226.0074920654297" cy="274.0245056152344" r="5" fill="none" stroke="deeppink" stroke-width="2"/><circle  cx="402.11492919921875" cy="184.979736328125" r="5" fill="none" stroke="deeppink" stroke-width="2"/><circle  cx="365.72216796875" cy="96.38360595703125" r="5" fill="none" stroke="deeppink" stroke-width="2"/><circle  cx="464.1363525390625" cy="17.983461380004883" r="5" fill="none" stroke="deeppink" stroke-width="2"/><circle  cx="706.2636108398438" cy="410.8225402832031" r="5" fill="none" stroke="deeppink" stroke-width="2"/><circle  cx="206.93898010253906" cy="356.4600830078125" r="5" fill="none" stroke="deeppink" stroke-width="2"/><circle  cx="225.5588836669922" cy="333.5331726074219" r="5" fill="none" stroke="deeppink" stroke-width="2"/><circle  cx="185.86863708496094" cy="328.0917663574219" r="5" fill="none" stroke="deeppink" stroke-width="2"/><circle  cx="253.70260620117188" cy="291.27386474609375" r="5" fill="none" stroke="deeppink" stroke-width="2"/><circle  cx="219.1784210205078" cy="284.6533203125" r="5" fill="none" stroke="deeppink" stroke-width="2"/><circle  cx="188.17953491210938" cy="275.2098388671875" r="5" fill="none" stroke="deeppink" stroke-width="2"/><circle  cx="367.0837097167969" cy="272.0616455078125" r="5" fill="none" stroke="deeppink" stroke-width="2"/><circle  cx="235.39830017089844" cy="264.9770812988281" r="5" fill="none" stroke="deeppink" stroke-width="2"/><circle  cx="374.6127014160156" cy="257.7831726074219" r="5" fill="none" stroke="deeppink" stroke-width="2"/><circle  cx="192.53355407714844" cy="255.8608856201172" r="5" fill="none" stroke="deeppink" stroke-width="2"/><circle  cx="182.2174835205078" cy="251.4268341064453" r="5" fill="none" stroke="deeppink" stroke-width="2"/><circle  cx="704.1586303710938" cy="253.10986328125" r="5" fill="none" stroke="deeppink" stroke-width="2"/><circle  cx="202.7740936279297" cy="245.27365112304688" r="5" fill="none" stroke="deeppink" stroke-width="2"/><circle  cx="195.73826599121094" cy="230.291259765625" r="5" fill="none" stroke="deeppink" stroke-width="2"/><circle  cx="332.3638000488281" cy="229.54556274414062" r="5" fill="none" stroke="deeppink" stroke-width="2"/><circle  cx="239.09715270996094" cy="220.9417266845703" r="5" fill="none" stroke="deeppink" stroke-width="2"/><circle  cx="201.5648956298828" cy="219.1033935546875" r="5" fill="none" stroke="deeppink" stroke-width="2"/><circle  cx="593.7620849609375" cy="206.99786376953125" r="5" fill="none" stroke="deeppink" stroke-width="2"/><circle  cx="176.1731414794922" cy="199.11563110351562" r="5" fill="none" stroke="deeppink" stroke-width="2"/><circle  cx="390.9259948730469" cy="198.9184112548828" r="5" fill="none" stroke="deeppink" stroke-width="2"/><circle  cx="198.18067932128906" cy="194.32655334472656" r="5" fill="none" stroke="deeppink" stroke-width="2"/><circle  cx="629.8213500976562" cy="181.6591796875" r="5" fill="none" stroke="deeppink" stroke-width="2"/><circle  cx="277.24212646484375" cy="181.09156799316406" r="5" fill="none" stroke="deeppink" stroke-width="2"/><circle  cx="722.79296875" cy="172.35780334472656" r="5" fill="none" stroke="deeppink" stroke-width="2"/><circle  cx="110.7967529296875" cy="166.50112915039062" r="5" fill="none" stroke="deeppink" stroke-width="2"/><circle  cx="192.11956787109375" cy="161.4186553955078" r="5" fill="none" stroke="deeppink" stroke-width="2"/><circle  cx="246.6733856201172" cy="164.72215270996094" r="5" fill="none" stroke="deeppink" stroke-width="2"/><circle  cx="174.49749755859375" cy="156.25157165527344" r="5" fill="none" stroke="deeppink" stroke-width="2"/><circle  cx="720.838623046875" cy="140.96177673339844" r="5" fill="none" stroke="deeppink" stroke-width="2"/><circle  cx="273.0976867675781" cy="142.09884643554688" r="5" fill="none" stroke="deeppink" stroke-width="2"/><circle  cx="236.57594299316406" cy="134.92657470703125" r="5" fill="none" stroke="deeppink" stroke-width="2"/><circle  cx="604.5430908203125" cy="141.34214782714844" r="5" fill="none" stroke="deeppink" stroke-width="2"/><circle  cx="208.15696716308594" cy="123.85548400878906" r="5" fill="none" stroke="deeppink" stroke-width="2"/><circle  cx="98.86638641357422" cy="123.75240325927734" r="5" fill="none" stroke="deeppink" stroke-width="2"/><circle  cx="290.0268249511719" cy="109.99044036865234" r="5" fill="none" stroke="deeppink" stroke-width="2"/><circle  cx="751.5225830078125" cy="115.37480926513672" r="5" fill="none" stroke="deeppink" stroke-width="2"/><circle  cx="36.88138961791992" cy="101.09365844726562" r="5" fill="none" stroke="deeppink" stroke-width="2"/><circle  cx="43.54610824584961" cy="95.25521087646484" r="5" fill="none" stroke="deeppink" stroke-width="2"/><circle  cx="340.7897033691406" cy="94.90697479248047" r="5" fill="none" stroke="deeppink" stroke-width="2"/><circle  cx="206.73443603515625" cy="87.52875518798828" r="5" fill="none" stroke="deeppink" stroke-width="2"/><circle  cx="89.48825073242188" cy="85.09391021728516" r="5" fill="none" stroke="deeppink" stroke-width="2"/><circle  cx="225.2683868408203" cy="81.14366912841797" r="5" fill="none" stroke="deeppink" stroke-width="2"/><circle  cx="90.69269561767578" cy="65.71671295166016" r="5" fill="none" stroke="deeppink" stroke-width="2"/><circle  cx="178.7653350830078" cy="62.6627082824707" r="5" fill="none" stroke="deeppink" stroke-width="2"/><circle  cx="539.207763671875" cy="60.24826431274414" r="5" fill="none" stroke="deeppink" stroke-width="2"/><circle  cx="127.20320129394531" cy="53.94505310058594" r="5" fill="none" stroke="deeppink" stroke-width="2"/><circle  cx="604.116455078125" cy="54.007503509521484" r="5" fill="none" stroke="deeppink" stroke-width="2"/><circle  cx="278.9774169921875" cy="49.10527038574219" r="5" fill="none" stroke="deeppink" stroke-width="2"/><circle  cx="287.406494140625" cy="37.09428787231445" r="5" fill="none" stroke="deeppink" stroke-width="2"/><circle  cx="275.80340576171875" cy="31.30939292907715" r="5" fill="none" stroke="deeppink" stroke-width="2"/><circle  cx="294.8196105957031" cy="377.68035888671875" r="5" fill="none" stroke="deeppink" stroke-width="2"/><circle  cx="80.10696411132812" cy="370.2276916503906" r="5" fill="none" stroke="deeppink" stroke-width="2"/><circle  cx="195.3569793701172" cy="369.3657531738281" r="5" fill="none" stroke="deeppink" stroke-width="2"/><circle  cx="693.1068115234375" cy="370.11920166015625" r="5" fill="none" stroke="deeppink" stroke-width="2"/><circle  cx="166.38632202148438" cy="359.6833190917969" r="5" fill="none" stroke="deeppink" stroke-width="2"/><circle  cx="238.62355041503906" cy="348.9059753417969" r="5" fill="none" stroke="deeppink" stroke-width="2"/><circle  cx="212.226806640625" cy="339.3789367675781" r="5" fill="none" stroke="deeppink" stroke-width="2"/><circle  cx="767.2498168945312" cy="344.9181823730469" r="5" fill="none" stroke="deeppink" stroke-width="2"/><circle  cx="317.25701904296875" cy="333.18243408203125" r="5" fill="none" stroke="deeppink" stroke-width="2"/><circle  cx="463.347900390625" cy="325.2561340332031" r="5" fill="none" stroke="deeppink" stroke-width="2"/><circle  cx="221.9813232421875" cy="317.71832275390625" r="5" fill="none" stroke="deeppink" stroke-width="2"/><circle  cx="349.8567810058594" cy="317.3814392089844" r="5" fill="none" stroke="deeppink" stroke-width="2"/><circle  cx="268.87957763671875" cy="315.4898986816406" r="5" fill="none" stroke="deeppink" stroke-width="2"/><circle  cx="238.60214233398438" cy="308.0547790527344" r="5" fill="none" stroke="deeppink" stroke-width="2"/><circle  cx="800.0413208007812" cy="300.0166931152344" r="5" fill="none" stroke="deeppink" stroke-width="2"/><circle  cx="336.9153747558594" cy="285.45513916015625" r="5" fill="none" stroke="deeppink" stroke-width="2"/><circle  cx="237.59852600097656" cy="284.5102844238281" r="5" fill="none" stroke="deeppink" stroke-width="2"/><circle  cx="682.5783081054688" cy="283.0204162597656" r="5" fill="none" stroke="deeppink" stroke-width="2"/><circle  cx="746.260009765625" cy="282.7828063964844" r="5" fill="none" stroke="deeppink" stroke-width="2"/><circle  cx="279.6981201171875" cy="279.3492736816406" r="5" fill="none" stroke="deeppink" stroke-width="2"/><circle  cx="257.3619079589844" cy="276.92791748046875" r="5" fill="none" stroke="deeppink" stroke-width="2"/><circle  cx="325.242919921875" cy="272.01165771484375" r="5" fill="none" stroke="deeppink" stroke-width="2"/><circle  cx="339.9861755371094" cy="271.1160888671875" r="5" fill="none" stroke="deeppink" stroke-width="2"/><circle  cx="718.17822265625" cy="266.5332336425781" r="5" fill="none" stroke="deeppink" stroke-width="2"/><circle  cx="278.8272399902344" cy="265.9730529785156" r="5" fill="none" stroke="deeppink" stroke-width="2"/><circle  cx="173.82501220703125" cy="266.8727111816406" r="5" fill="none" stroke="deeppink" stroke-width="2"/><circle  cx="290.3394775390625" cy="265.51739501953125" r="5" fill="none" stroke="deeppink" stroke-width="2"/><circle  cx="77.69037628173828" cy="264.7481689453125" r="5" fill="none" stroke="deeppink" stroke-width="2"/><circle  cx="246.20944213867188" cy="263.8065490722656" r="5" fill="none" stroke="deeppink" stroke-width="2"/><circle  cx="386.75067138671875" cy="262.1158142089844" r="5" fill="none" stroke="deeppink" stroke-width="2"/><circle  cx="812.3447265625" cy="263.1363525390625" r="5" fill="none" stroke="deeppink" stroke-width="2"/><circle  cx="362.6812744140625" cy="252.07244873046875" r="5" fill="none" stroke="deeppink" stroke-width="2"/><circle  cx="578.3870849609375" cy="259.34912109375" r="5" fill="none" stroke="deeppink" stroke-width="2"/><circle  cx="419.6625671386719" cy="244.86181640625" r="5" fill="none" stroke="deeppink" stroke-width="2"/><circle  cx="230.62501525878906" cy="242.35635375976562" r="5" fill="none" stroke="deeppink" stroke-width="2"/><circle  cx="374.4947814941406" cy="235.0395965576172" r="5" fill="none" stroke="deeppink" stroke-width="2"/><circle  cx="75.21827697753906" cy="235.1719512939453" r="5" fill="none" stroke="deeppink" stroke-width="2"/><circle  cx="529.1856079101562" cy="236.6320037841797" r="5" fill="none" stroke="deeppink" stroke-width="2"/><circle  cx="391.97344970703125" cy="233.0050048828125" r="5" fill="none" stroke="deeppink" stroke-width="2"/><circle  cx="212.13929748535156" cy="233.43040466308594" r="5" fill="none" stroke="deeppink" stroke-width="2"/><circle  cx="229.9550018310547" cy="230.18319702148438" r="5" fill="none" stroke="deeppink" stroke-width="2"/><circle  cx="739.2019653320312" cy="231.54061889648438" r="5" fill="none" stroke="deeppink" stroke-width="2"/><circle  cx="774.8281860351562" cy="228.5858917236328" r="5" fill="none" stroke="deeppink" stroke-width="2"/><circle  cx="386.10595703125" cy="221.2987060546875" r="5" fill="none" stroke="deeppink" stroke-width="2"/><circle  cx="279.0810241699219" cy="217.49774169921875" r="5" fill="none" stroke="deeppink" stroke-width="2"/><circle  cx="337.73443603515625" cy="214.10617065429688" r="5" fill="none" stroke="deeppink" stroke-width="2"/><circle  cx="360.3011474609375" cy="213.9818572998047" r="5" fill="none" stroke="deeppink" stroke-width="2"/><circle  cx="228.6312713623047" cy="210.95945739746094" r="5" fill="none" stroke="deeppink" stroke-width="2"/><circle  cx="167.333984375" cy="211.62371826171875" r="5" fill="none" stroke="deeppink" stroke-width="2"/><circle  cx="426.0" cy="204.1959228515625" r="5" fill="none" stroke="deeppink" stroke-width="2"/><circle  cx="317.7676696777344" cy="189.7426300048828" r="5" fill="none" stroke="deeppink" stroke-width="2"/><circle  cx="558.0274658203125" cy="195.64759826660156" r="5" fill="none" stroke="deeppink" stroke-width="2"/><circle  cx="130.12158203125" cy="184.87252807617188" r="5" fill="none" stroke="deeppink" stroke-width="2"/><circle  cx="261.08551025390625" cy="178.21661376953125" r="5" fill="none" stroke="deeppink" stroke-width="2"/><circle  cx="153.28636169433594" cy="183.6350555419922" r="5" fill="none" stroke="deeppink" stroke-width="2"/><circle  cx="371.1747131347656" cy="174.88844299316406" r="5" fill="none" stroke="deeppink" stroke-width="2"/><circle  cx="111.27908325195312" cy="184.46849060058594" r="5" fill="none" stroke="deeppink" stroke-width="2"/><circle  cx="392.3016357421875" cy="171.5" r="5" fill="none" stroke="deeppink" stroke-width="2"/><circle  cx="182.46458435058594" cy="170.0720977783203" r="5" fill="none" stroke="deeppink" stroke-width="2"/><circle  cx="332.8873291015625" cy="159.09249877929688" r="5" fill="none" stroke="deeppink" stroke-width="2"/><circle  cx="374.7449951171875" cy="155.36544799804688" r="5" fill="none" stroke="deeppink" stroke-width="2"/><circle  cx="387.1373596191406" cy="156.88316345214844" r="5" fill="none" stroke="deeppink" stroke-width="2"/><circle  cx="302.05169677734375" cy="149.93301391601562" r="5" fill="none" stroke="deeppink" stroke-width="2"/><circle  cx="144.15866088867188" cy="150.4021453857422" r="5" fill="none" stroke="deeppink" stroke-width="2"/><circle  cx="334.3500671386719" cy="145.77578735351562" r="5" fill="none" stroke="deeppink" stroke-width="2"/><circle  cx="196.60594177246094" cy="142.8842010498047" r="5" fill="none" stroke="deeppink" stroke-width="2"/><circle  cx="659.033935546875" cy="149.39434814453125" r="5" fill="none" stroke="deeppink" stroke-width="2"/><circle  cx="301.0610656738281" cy="139.05979919433594" r="5" fill="none" stroke="deeppink" stroke-width="2"/><circle  cx="322.8062744140625" cy="130.65939331054688" r="5" fill="none" stroke="deeppink" stroke-width="2"/><circle  cx="288.2688293457031" cy="132.0430908203125" r="5" fill="none" stroke="deeppink" stroke-width="2"/><circle  cx="297.8548889160156" cy="127.7761001586914" r="5" fill="none" stroke="deeppink" stroke-width="2"/><circle  cx="60.818721771240234" cy="124.45631408691406" r="5" fill="none" stroke="deeppink" stroke-width="2"/><circle  cx="504.74859619140625" cy="119.53060150146484" r="5" fill="none" stroke="deeppink" stroke-width="2"/><circle  cx="271.95135498046875" cy="113.16411590576172" r="5" fill="none" stroke="deeppink" stroke-width="2"/><circle  cx="342.4541015625" cy="111.45855712890625" r="5" fill="none" stroke="deeppink" stroke-width="2"/><circle  cx="623.6925659179688" cy="110.30589294433594" r="5" fill="none" stroke="deeppink" stroke-width="2"/><circle  cx="285.106689453125" cy="104.82718658447266" r="5" fill="none" stroke="deeppink" stroke-width="2"/><circle  cx="273.9785461425781" cy="100.97938537597656" r="5" fill="none" stroke="deeppink" stroke-width="2"/><circle  cx="323.015625" cy="102.96980285644531" r="5" fill="none" stroke="deeppink" stroke-width="2"/><circle  cx="314.1689453125" cy="96.30171203613281" r="5" fill="none" stroke="deeppink" stroke-width="2"/><circle  cx="298.38775634765625" cy="87.70060729980469" r="5" fill="none" stroke="deeppink" stroke-width="2"/><circle  cx="507.5698547363281" cy="91.23928833007812" r="5" fill="none" stroke="deeppink" stroke-width="2"/><circle  cx="716.69189453125" cy="89.40035247802734" r="5" fill="none" stroke="deeppink" stroke-width="2"/><circle  cx="55.93836212158203" cy="73.59154510498047" r="5" fill="none" stroke="deeppink" stroke-width="2"/><circle  cx="295.4580383300781" cy="74.22384643554688" r="5" fill="none" stroke="deeppink" stroke-width="2"/><circle  cx="313.4144592285156" cy="75.13138580322266" r="5" fill="none" stroke="deeppink" stroke-width="2"/><circle  cx="153.178955078125" cy="70.80354309082031" r="5" fill="none" stroke="deeppink" stroke-width="2"/><circle  cx="302.8251037597656" cy="68.72185516357422" r="5" fill="none" stroke="deeppink" stroke-width="2"/><circle  cx="212.3856658935547" cy="72.94776916503906" r="5" fill="none" stroke="deeppink" stroke-width="2"/><circle  cx="283.7920837402344" cy="68.281005859375" r="5" fill="none" stroke="deeppink" stroke-width="2"/><circle  cx="231.20114135742188" cy="68.63050842285156" r="5" fill="none" stroke="deeppink" stroke-width="2"/><circle  cx="316.3038330078125" cy="65.36868286132812" r="5" fill="none" stroke="deeppink" stroke-width="2"/><circle  cx="73.78715515136719" cy="54.344478607177734" r="5" fill="none" stroke="deeppink" stroke-width="2"/><circle  cx="246.19308471679688" cy="58.0174446105957" r="5" fill="none" stroke="deeppink" stroke-width="2"/><circle  cx="75.63097381591797" cy="55.177879333496094" r="5" fill="none" stroke="deeppink" stroke-width="2"/><circle  cx="235.06927490234375" cy="48.91902542114258" r="5" fill="none" stroke="deeppink" stroke-width="2"/><circle  cx="240.66236877441406" cy="37.48349380493164" r="5" fill="none" stroke="deeppink" stroke-width="2"/><circle  cx="187.69212341308594" cy="33.718753814697266" r="5" fill="none" stroke="deeppink" stroke-width="2"/><circle  cx="829.1554565429688" cy="14.03762435913086" r="5" fill="none" stroke="deeppink" stroke-width="2"/><circle  cx="105.07241821289062" cy="391.5830383300781" r="5" fill="none" stroke="deeppink" stroke-width="2"/><circle  cx="653.2088623046875" cy="392.5332946777344" r="5" fill="none" stroke="deeppink" stroke-width="2"/><circle  cx="200.07435607910156" cy="387.65020751953125" r="5" fill="none" stroke="deeppink" stroke-width="2"/><circle  cx="95.25031280517578" cy="384.4993896484375" r="5" fill="none" stroke="deeppink" stroke-width="2"/><circle  cx="157.37242126464844" cy="369.95538330078125" r="5" fill="none" stroke="deeppink" stroke-width="2"/><circle  cx="294.9620361328125" cy="364.6822204589844" r="5" fill="none" stroke="deeppink" stroke-width="2"/><circle  cx="717.1893920898438" cy="339.1394348144531" r="5" fill="none" stroke="deeppink" stroke-width="2"/><circle  cx="737.6336059570312" cy="344.97625732421875" r="5" fill="none" stroke="deeppink" stroke-width="2"/><circle  cx="144.25881958007812" cy="339.851318359375" r="5" fill="none" stroke="deeppink" stroke-width="2"/><circle  cx="263.8753356933594" cy="334.5434265136719" r="5" fill="none" stroke="deeppink" stroke-width="2"/><circle  cx="210.31491088867188" cy="326.5012512207031" r="5" fill="none" stroke="deeppink" stroke-width="2"/><circle  cx="304.7058410644531" cy="309.0529479980469" r="5" fill="none" stroke="deeppink" stroke-width="2"/><circle  cx="715.1923217773438" cy="300.4809875488281" r="5" fill="none" stroke="deeppink" stroke-width="2"/><circle  cx="153.9625244140625" cy="300.949462890625" r="5" fill="none" stroke="deeppink" stroke-width="2"/><circle  cx="309.0069885253906" cy="233.7424774169922" r="5" fill="none" stroke="deeppink" stroke-width="2"/><circle  cx="23.656206130981445" cy="194.55307006835938" r="5" fill="none" stroke="deeppink" stroke-width="2"/><circle  cx="295.0374450683594" cy="159.64749145507812" r="5" fill="none" stroke="deeppink" stroke-width="2"/><circle  cx="351.9033508300781" cy="134.71627807617188" r="5" fill="none" stroke="deeppink" stroke-width="2"/><circle  cx="221.5841064453125" cy="98.06583404541016" r="5" fill="none" stroke="deeppink" stroke-width="2"/><circle  cx="259.607421875" cy="97.22080993652344" r="5" fill="none" stroke="deeppink" stroke-width="2"/><circle  cx="149.66506958007812" cy="86.84892272949219" r="5" fill="none" stroke="deeppink" stroke-width="2"/><circle  cx="343.7554016113281" cy="85.23231506347656" r="5" fill="none" stroke="deeppink" stroke-width="2"/><circle  cx="271.0202941894531" cy="71.1467514038086" r="5" fill="none" stroke="deeppink" stroke-width="2"/><circle  cx="167.48451232910156" cy="63.08605194091797" r="5" fill="none" stroke="deeppink" stroke-width="2"/><circle  cx="266.9912414550781" cy="53.535343170166016" r="5" fill="none" stroke="deeppink" stroke-width="2"/><circle  cx="86.5" cy="41.0" r="5" fill="none" stroke="deeppink" stroke-width="2"/><circle  cx="623.4458618164062" cy="36.16078567504883" r="5" fill="none" stroke="deeppink" stroke-width="2"/><circle  cx="626.613037109375" cy="35.996070861816406" r="5" fill="none" stroke="deeppink" stroke-width="2"/><circle  cx="46.174644470214844" cy="242.07269287109375" r="5" fill="none" stroke="deeppink" stroke-width="2"/><circle  cx="128.41378784179688" cy="230.149658203125" r="5" fill="none" stroke="deeppink" stroke-width="2"/><circle  cx="16.099777221679688" cy="172.9593963623047" r="5" fill="none" stroke="deeppink" stroke-width="2"/><circle  cx="340.0035095214844" cy="127.7223892211914" r="5" fill="none" stroke="deeppink" stroke-width="2"/><circle  cx="35.538719177246094" cy="119.2837142944336" r="5" fill="none" stroke="deeppink" stroke-width="2"/><circle  cx="183.72320556640625" cy="390.97119140625" r="5" fill="none" stroke="deeppink" stroke-width="2"/><circle  cx="113.36795806884766" cy="350.36773681640625" r="5" fill="none" stroke="deeppink" stroke-width="2"/><circle  cx="41.19700622558594" cy="327.9577941894531" r="5" fill="none" stroke="deeppink" stroke-width="2"/><circle  cx="32.49900817871094" cy="313.81158447265625" r="5" fill="none" stroke="deeppink" stroke-width="2"/><circle  cx="835.251953125" cy="305.7752685546875" r="5" fill="none" stroke="deeppink" stroke-width="2"/><circle  cx="354.9840087890625" cy="299.00439453125" r="5" fill="none" stroke="deeppink" stroke-width="2"/><circle  cx="290.6171875" cy="225.3802490234375" r="5" fill="none" stroke="deeppink" stroke-width="2"/><circle  cx="324.90252685546875" cy="220.13958740234375" r="5" fill="none" stroke="deeppink" stroke-width="2"/><circle  cx="605.0388793945312" cy="217.03231811523438" r="5" fill="none" stroke="deeppink" stroke-width="2"/><circle  cx="304.67620849609375" cy="179.35293579101562" r="5" fill="none" stroke="deeppink" stroke-width="2"/><circle  cx="538.9843139648438" cy="171.39608764648438" r="5" fill="none" stroke="deeppink" stroke-width="2"/><circle  cx="238.3063201904297" cy="114.52324676513672" r="5" fill="none" stroke="deeppink" stroke-width="2"/><circle  cx="246.02517700195312" cy="95.16922760009766" r="5" fill="none" stroke="deeppink" stroke-width="2"/><circle  cx="441.82257080078125" cy="18.70916748046875" r="5" fill="none" stroke="deeppink" stroke-width="2"/><circle  cx="89.86722564697266" cy="351.0022888183594" r="5" fill="none" stroke="deeppink" stroke-width="2"/><circle  cx="57.2921257019043" cy="345.0548400878906" r="5" fill="none" stroke="deeppink" stroke-width="2"/><circle  cx="47.0" cy="337.5" r="5" fill="none" stroke="deeppink" stroke-width="2"/><circle  cx="283.69598388671875" cy="334.865234375" r="5" fill="none" stroke="deeppink" stroke-width="2"/><circle  cx="801.1094360351562" cy="330.26983642578125" r="5" fill="none" stroke="deeppink" stroke-width="2"/><circle  cx="302.97613525390625" cy="277.24212646484375" r="5" fill="none" stroke="deeppink" stroke-width="2"/><circle  cx="498.6832275390625" cy="204.12147521972656" r="5" fill="none" stroke="deeppink" stroke-width="2"/><circle  cx="255.7391357421875" cy="156.9430694580078" r="5" fill="none" stroke="deeppink" stroke-width="2"/><circle  cx="118.63306427001953" cy="141.68557739257812" r="5" fill="none" stroke="deeppink" stroke-width="2"/><circle  cx="603.072265625" cy="106.71504974365234" r="5" fill="none" stroke="deeppink" stroke-width="2"/><circle  cx="94.98526763916016" cy="93.8747787475586" r="5" fill="none" stroke="deeppink" stroke-width="2"/><circle  cx="594.9780883789062" cy="86.32968139648438" r="5" fill="none" stroke="deeppink" stroke-width="2"/><circle  cx="686.619140625" cy="27.5699520111084" r="5" fill="none" stroke="deeppink" stroke-width="2"/><circle  cx="71.4835205078125" cy="360.98345947265625" r="5" fill="none" stroke="deeppink" stroke-width="2"/><circle  cx="771.0934448242188" cy="296.0964660644531" r="5" fill="none" stroke="deeppink" stroke-width="2"/><circle  cx="228.0031280517578" cy="290.5521545410156" r="5" fill="none" stroke="deeppink" stroke-width="2"/><circle  cx="467.57879638671875" cy="288.0414733886719" r="5" fill="none" stroke="deeppink" stroke-width="2"/><circle  cx="166.32528686523438" cy="222.1239776611328" r="5" fill="none" stroke="deeppink" stroke-width="2"/><circle  cx="268.9947814941406" cy="191.47308349609375" r="5" fill="none" stroke="deeppink" stroke-width="2"/><circle  cx="322.8521728515625" cy="29.95990562438965" r="5" fill="none" stroke="deeppink" stroke-width="2"/><circle  cx="128.5" cy="17.5" r="5" fill="none" stroke="deeppink" stroke-width="2"/><circle  cx="198.07395935058594" cy="417.0" r="5" fill="none" stroke="deeppink" stroke-width="2"/><circle  cx="167.57647705078125" cy="347.1307678222656" r="5" fill="none" stroke="deeppink" stroke-width="2"/><circle  cx="657.2368774414062" cy="286.5323486328125" r="5" fill="none" stroke="deeppink" stroke-width="2"/><circle  cx="164.6967315673828" cy="254.87335205078125" r="5" fill="none" stroke="deeppink" stroke-width="2"/><circle  cx="188.69033813476562" cy="7.054581165313721" r="5" fill="none" stroke="deeppink" stroke-width="2"/><circle  cx="231.38890075683594" cy="415.5555725097656" r="5" fill="none" stroke="deeppink" stroke-width="2"/><circle  cx="280.11163330078125" cy="417.1534729003906" r="5" fill="none" stroke="deeppink" stroke-width="2"/><circle  cx="382.1165466308594" cy="86.40445709228516" r="5" fill="none" stroke="deeppink" stroke-width="2"/><circle  cx="291.0" cy="25.5" r="5" fill="none" stroke="deeppink" stroke-width="2"/><circle  cx="273.65447998046875" cy="398.6219482421875" r="5" fill="none" stroke="deeppink" stroke-width="2"/></svg>